<svg xmlns="http://www.w3.org/2000/svg" width="256" height="256" viewBox="0 0 256 256" id="error-server-large" data-supported-dps="256x256">
  <path d="M128 0a128 128 0 01128 128H0A128 128 0 01128 0z" fill="#ffefea"/>
  <path fill="#38434f" d="M120 0h116v236H120z"/>
  <path d="M236 0h8a12 12 0 0112 12v224h-20V0z" fill="#56687a"/>
  <path fill="#1d2226" d="M138 154h48v58h-48z"/>
  <circle cx="141" cy="23" r="3" fill="#fff"/>
  <circle cx="147" cy="23" r="3" fill="#fff"/>
  <circle cx="153" cy="23" r="3" fill="#e7592f"/>
  <circle cx="159" cy="23" r="3" fill="#fff"/>
  <circle cx="165" cy="23" r="3" fill="#fff"/>
  <circle cx="171" cy="23" r="3" fill="#fff"/>
  <circle cx="177" cy="23" r="3" fill="#fff"/>
  <circle cx="183" cy="23" r="3" fill="#fff"/>
  <circle cx="189" cy="23" r="3" fill="#e7592f"/>
  <circle cx="195" cy="23" r="3" fill="#fff"/>
  <circle cx="201" cy="23" r="3" fill="#e7592f"/>
  <circle cx="207" cy="23" r="3" fill="#fff"/>
  <circle cx="141" cy="71" r="3" fill="#fff"/>
  <circle cx="153" cy="71" r="3" fill="#fff"/>
  <circle cx="159" cy="71" r="3" fill="#fff"/>
  <circle cx="165" cy="71" r="3" fill="#95abc1"/>
  <circle cx="177" cy="71" r="3" fill="#95abc1"/>
  <circle cx="141" cy="83" r="3" fill="#fff"/>
  <circle cx="147" cy="83" r="3" fill="#fff"/>
  <circle cx="153" cy="83" r="3" fill="#fff"/>
  <circle cx="159" cy="83" r="3" fill="#95abc1"/>
  <circle cx="165" cy="83" r="3" fill="#fff"/>
  <circle cx="171" cy="83" r="3" fill="#fff"/>
  <circle cx="177" cy="83" r="3" fill="#e7592f"/>
  <circle cx="141" cy="95" r="3" fill="#e7592f"/>
  <circle cx="147" cy="95" r="3" fill="#fff"/>
  <circle cx="153" cy="95" r="3" fill="#e7592f"/>
  <circle cx="159" cy="95" r="3" fill="#fff"/>
  <circle cx="165" cy="95" r="3" fill="#fff"/>
  <circle cx="141" cy="107" r="3" fill="#fff"/>
  <circle cx="147" cy="107" r="3" fill="#95abc1"/>
  <circle cx="153" cy="107" r="3" fill="#fff"/>
  <circle cx="159" cy="107" r="3" fill="#95abc1"/>
  <circle cx="165" cy="107" r="3" fill="#fff"/>
  <circle cx="141" cy="35" r="3" fill="#e7592f"/>
  <circle cx="147" cy="35" r="3" fill="#fff"/>
  <circle cx="153" cy="35" r="3" fill="#fff"/>
  <circle cx="159" cy="35" r="3" fill="#95abc1"/>
  <circle cx="165" cy="35" r="3" fill="#fff"/>
  <circle cx="171" cy="35" r="3" fill="#fff"/>
  <circle cx="177" cy="35" r="3" fill="#fff"/>
  <circle cx="189" cy="35" r="3" fill="#fff"/>
  <circle cx="195" cy="35" r="3" fill="#95abc1"/>
  <circle cx="207" cy="35" r="3" fill="#fff"/>
  <circle cx="141" cy="47" r="3" fill="#fff"/>
  <circle cx="153" cy="47" r="3" fill="#fff"/>
  <circle cx="159" cy="47" r="3" fill="#fff"/>
  <circle cx="165" cy="47" r="3" fill="#fff"/>
  <circle cx="171" cy="47" r="3" fill="#fff"/>
  <circle cx="177" cy="47" r="3" fill="#e7592f"/>
  <circle cx="141" cy="59" r="3" fill="#95abc1"/>
  <circle cx="147" cy="59" r="3" fill="#fff"/>
  <circle cx="153" cy="59" r="3" fill="#e7592f"/>
  <circle cx="159" cy="59" r="3" fill="#fff"/>
  <circle cx="165" cy="59" r="3" fill="#fff"/>
  <circle cx="171" cy="59" r="3" fill="#fff"/>
  <circle cx="177" cy="59" r="3" fill="#fff"/>
  <circle cx="183" cy="59" r="3" fill="#fff"/>
  <circle cx="189" cy="59" r="3" fill="#fff"/>
  <path fill="#0d2135" d="M62 122h30l6-22H68l-6 22z"/>
  <path fill="#0d2135" d="M49.2 120h42v2h-42z"/>
  <path d="M65.2 118h25.71c.3-1.12 4.13-15.43 4.29-16H69.48c-.14.52-4 14.94-4.28 16z" fill="#a8d4ff"/>
  <path fill="#f4fbfe" d="M69.19 116h18.87l3.13-12H72.34l-3.15 12z"/>
  <path fill="#1b4481" d="M71.19 106H90.8l.39-2h-19.6l-.4 2z"/>
  <path fill="#0d2135" d="M69.19 112h11.58l.54-2H69.73l-.54 2z"/>
  <path fill="#d6cec2" d="M54 126h10v82H54z"/>
  <path d="M85.14 237.3v2.7H33v-2.7l19.78-2a3.76 3.76 0 003.36-3.75V208H62v23.53a3.76 3.76 0 003.36 3.75zM28 122h64v6H28z" fill="#6e6558"/>
  <circle cx="83" cy="243" r="3" fill="#0d2135"/>
  <circle cx="59" cy="243" r="3" fill="#0d2135"/>
  <path fill="#955646" d="M2.85 232L4 228h12l-2 4-.98 7.81-8.77-1.18-1.4-6.63z"/>
  <path d="M2.85 232c5.85.55 5.87 3.4 11.15 0 3.26 9.75 10.61 4.47 12.2 13.91l-23.8-3a2 2 0 01-1.69-2.48z" fill="#0d2135"/>
  <path d="M8 140c2.69 22.49 6 50 6 50L4 228l14 2s10-30.22 13.32-48.11S32 140 32 140z" fill="#2a67b2"/>
  <path d="M41.72 54.07c-1.58-12.94-20.65-15.21-24.92-2.64C15.48 58.6 15.27 62.13 14 66a25.83 25.83 0 01-4 8l16 4c1.13-10.66 9.94-.74 12-9.36.69-2.3 2.31-1.34 2.79-2.64.42-1.11-.32-4.16.67-6.57a13.5 13.5 0 00.26-5.36z" fill="#955646"/>
  <path d="M40.54 52h-.07a.86.86 0 01.14.13.46.46 0 00-.07-.13zM39.76 51.68a1.09 1.09 0 01.3.07 1.09 1.09 0 00-.3-.07z" fill="#2d1c17"/>
  <path d="M20.8 61.24c2-.31 2.23-.64 3.5-3.07 1.36-3.36 7.87-2.53 6.17 2.54 4.66.53.7-5.08 4.55-5.42 1.75-.16 1.68-2.07 2.15-2.5.84-.75 2-.12 2.83.24 1.19.5 2.68 1.09 3.64-.37 1.18-1.79-.81-3.53-2-4.68A21.46 21.46 0 0036 44c-6.17-2.85-13.66-2-17.54 1.45a14 14 0 00-3.69 5.65 13.15 13.15 0 00-.77 4.45V66s4.08-.06 5.81-2.71z" fill="#2d1c17"/>
  <path d="M20.48 235.47l.56-6.3h11.77a9.87 9.87 0 00-.33 6.28v4.84l-9.89-.19z" fill="#955646"/>
  <path d="M20.48 235.47c6.58-.12 6.54 4.13 12 0 5.91 5.51 11.27 4.72 13.93 7.09A2 2 0 0145 246H22.16a2 2 0 01-2-2.08z" fill="#0d2135"/>
  <path d="M36 140l4.46 20.22c4.33 14.83 0 39.14 0 39.14L36 230H18l4-46C4.06 156.54 4 140 4 140z" fill="#4684c4"/>
  <path d="M26 78c1.92 5.64 6.54 9.48 8.38 14.56S36 102.89 36 112v28H4l-2-2a6.84 6.84 0 01-2-4.83V98.75C1.38 76.56 10 74 10 74z" fill="#d0e8ff"/>
  <path d="M11.07 114c.36 4 3.85 8 7.82 8h39.55s.19-3.62-4.44-4c-1.52-.12-8 0-8 0l-22-6v-12H8z" fill="#955646"/>
  <path d="M103.33 186A13.35 13.35 0 0190 173v-45h2v45a11.34 11.34 0 0011.33 11A10.86 10.86 0 00114 173v-1.49h2V173a12.86 12.86 0 01-12.67 13z" fill="#8a8f6c"/>
  <path d="M101 216a15.21 15.21 0 01-15-15.37V128h2v72.63a13 13 0 1026 0v-41.89a10.08 10.08 0 0110-10.06 10 10 0 0110 10.06v36a5 5 0 1010 0V154h2v40.72a7.05 7.05 0 01-7 7.26 7.15 7.15 0 01-7-7.26v-36a8 8 0 10-16 0v41.89A15.19 15.19 0 01101 216z" fill="#e16745"/>
  <rect x="158" y="174" width="14" height="24" rx="2" fill="#8a8f6c"/>
  <path fill="#65684e" d="M164 154h2v20h-2z"/>
  <path fill="#c7f1b2" d="M160 178h10v6h-10z"/>
  <path fill="#38434f" d="M162 180h6v2h-6z"/>
  <path fill="#c0d1e2" d="M200 242h12v6h-12zM218.31 246.86l-3.63-.42L218 236h4l6 8-9.69 2.86z"/>
  <path d="M215.94 207.64l-19.24-5.19a7.88 7.88 0 00-9.81 8.44l.56 7.11h29.14z" fill="#2a67b2"/>
  <path d="M216 208l-4 3.2-28 6.95a12.07 12.07 0 00-9.09 10.85A12.07 12.07 0 00185 242l29.66 4.48L222 230h8.23c13.07 0 20.05-9 19.77-22z" fill="#4684c4"/>
  <path d="M186 256h26v-10c-6.28-.08-6.76 4.21-12 0-5.47 3.6-7.22 3.6-15.1 6.61-1.69.65-.73 3.39 1.1 3.39z" fill="#0d2135"/>
  <path d="M211.13 256h13.81l5.33-15.12c.83-2.32.19-5-2.27-4.88h-6c-2 5.66 1.57 7.39-3.69 10.86 1.29 6.89-5.43 2.97-7.18 9.14z" fill="#0d2135"/>
  <path d="M219.29 145c-.41-2.93-.14-6-1-8.8a12 12 0 00-9.58-8.23c-8.35-1.19-15.49 7-13.27 15.13.56 2.06 1.69 4 2 6.1.13 1.43.45 2.66 2 2.68 1.77.43 2 3 3.46 4 1.82 1.29 4.71-.19 6.43 1.24 1.29 1.07 1.07 3.09.69 4.74l17.33-5.31c-4.47-1.99-7.35-6.73-8.06-11.55z" fill="#de9885"/>
  <path d="M160 200h22v6h-24v-4a2 2 0 012-2z" fill="#56687a"/>
  <path d="M214.8 180.84L186 197.37a18 18 0 00-4.52.15l-7.56 2.48a1.15 1.15 0 00-.69 1.53 1.12 1.12 0 001.24.67l5.53-.87a1 1 0 011.16 1.46 2.72 2.72 0 01-1 .92c-.29.18-3.81 2.36-3.83 2.3h-3a.77.77 0 00-.58 1.23l-.93.07a.79.79 0 000 1.57l1.68.05-1.67.68a.79.79 0 00.49 1.49 16.82 16.82 0 009.63-4c4-3.77 6-3.77 6-3.77l30-8z" fill="#de9885"/>
  <path d="M223.92 154.13l-1.8-3.24a2 2 0 00-3-.62l-9.36 7.13v7L202 188l8.64 1.7 5.3 18.32H250c0-24.38-11.85-44.72-26.08-53.89z" fill="#d0e8ff"/>
  <path d="M234.82 141.17c-1.71-6.39-11-10.32-16-5.18-2.31-11-15.08-10.46-20.9-5.55-2.31 2-2.56 3.86-3.85 7a5.29 5.29 0 001.43 6.42l5.31-2.53a7.9 7.9 0 01-.57-3.37 8.06 8.06 0 005.11 4.46c-.77-3.08 3.52-5 5.21-2.21.37.6 3.3 6 5.46 6a18.6 18.6 0 003.53-.78s.07-3.67.05-5c2.13.63 3.62 3.73 5.31 6 4.48 5.73 12 8 17.71.81-.04.1-6.4-1.16-7.8-6.07z" fill="#fce2ba"/>
</svg>